<svg width="48" height="48" viewBox="0 0 48 48" fill="none" xmlns="http://www.w3.org/2000/svg">
<path d="M43.5 11.9203C42.0656 12.5391 40.5047 12.9844 38.8969 13.1578C40.5661 12.1661 41.8162 10.5994 42.4125 8.75155C40.8461 9.68338 39.1301 10.3368 37.3406 10.6828C36.5927 9.88324 35.6881 9.24627 34.6833 8.81159C33.6784 8.3769 32.5948 8.15382 31.5 8.15624C27.0703 8.15624 23.5078 11.7469 23.5078 16.1531C23.5078 16.7719 23.5828 17.3906 23.7047 17.9859C17.0719 17.6391 11.1562 14.4703 7.22343 9.61874C6.50683 10.8427 6.1313 12.2364 6.13592 13.6547C6.13592 16.4297 7.54686 18.8766 9.69842 20.3156C8.43048 20.2657 7.19222 19.9172 6.08436 19.2984V19.3969C6.08436 23.2828 8.83124 26.5031 12.4922 27.2437C11.8048 27.4223 11.0977 27.5136 10.3875 27.5156C9.86718 27.5156 9.37499 27.4641 8.87811 27.3937C9.89061 30.5625 12.839 32.8641 16.35 32.9391C13.6031 35.0906 10.1625 36.3562 6.42655 36.3562C5.75624 36.3562 5.13749 36.3328 4.4953 36.2578C8.03905 38.5312 12.2437 39.8437 16.7719 39.8437C31.4719 39.8437 39.5156 27.6656 39.5156 17.0953C39.5156 16.7484 39.5156 16.4016 39.4922 16.0547C41.0484 14.9156 42.4125 13.5047 43.5 11.9203Z" fill="#ABABAB"/>
</svg>
