<svg width="48" height="48" viewBox="0 0 48 48" fill="none" xmlns="http://www.w3.org/2000/svg">
<g clip-path="url(#clip0_49_92)">
<path fill-rule="evenodd" clip-rule="evenodd" d="M2 6.01019C2 4.94662 2.4225 3.92662 3.17456 3.17456C3.92661 2.42251 4.94662 2.00001 6.01018 2.00001H45.9855C46.5125 1.99914 47.0346 2.10225 47.5218 2.30342C48.0089 2.5046 48.4516 2.79988 48.8245 3.17238C49.1974 3.54487 49.4932 3.98726 49.6949 4.47421C49.8966 4.96116 50.0003 5.48311 50 6.01019V45.9855C50.0006 46.5126 49.8972 47.0347 49.6958 47.5219C49.4944 48.0091 49.1989 48.4518 48.8262 48.8247C48.4535 49.1975 48.011 49.4933 47.5239 49.695C47.0369 49.8966 46.5148 50.0003 45.9876 50H6.01018C5.48337 50 4.96173 49.8962 4.47505 49.6945C3.98837 49.4929 3.54619 49.1973 3.17378 48.8247C2.80138 48.4521 2.50603 48.0097 2.30463 47.5229C2.10323 47.0361 1.99971 46.5144 2 45.9876V6.01019ZM20.9993 20.3011H27.4989V23.5651C28.4371 21.6887 30.8371 20 34.4436 20C41.3578 20 42.9964 23.7375 42.9964 30.5949V43.2975H35.9993V32.1571C35.9993 28.2516 35.0611 26.048 32.6785 26.048C29.3731 26.048 27.9985 28.424 27.9985 32.1571V43.2975H20.9993V20.3011ZM8.99927 42.9985H15.9985V20H8.99927V42.9964V42.9985ZM17 12.4989C17.0132 13.0982 16.9066 13.6941 16.6863 14.2516C16.4661 14.8091 16.1368 15.317 15.7176 15.7455C15.2984 16.174 14.7979 16.5145 14.2454 16.7469C13.6928 16.9794 13.0994 17.0991 12.5 17.0991C11.9006 17.0991 11.3072 16.9794 10.7546 16.7469C10.2021 16.5145 9.70157 16.174 9.2824 15.7455C8.86323 15.317 8.53388 14.8091 8.31366 14.2516C8.09344 13.6941 7.9868 13.0982 8 12.4989C8.0259 11.3226 8.51139 10.2032 9.35248 9.38041C10.1936 8.55764 11.3234 8.09692 12.5 8.09692C13.6766 8.09692 14.8064 8.55764 15.6475 9.38041C16.4886 10.2032 16.9741 11.3226 17 12.4989V12.4989Z" fill="#FF5722"/>
</g>
<defs>
<clipPath id="clip0_49_92">
<rect width="48" height="48" fill="white"/>
</clipPath>
</defs>
</svg>
