<svg width="48" height="48" viewBox="0 0 48 48" fill="none" xmlns="http://www.w3.org/2000/svg">
<path d="M45.3438 0C46.0729 0 46.6979 0.260417 47.2188 0.78125C47.7396 1.30208 48 1.92708 48 2.65625V45.3438C48 46.0729 47.7396 46.6979 47.2188 47.2188C46.6979 47.7396 46.0729 48 45.3438 48H33.125V29.4062H39.3438L40.2812 22.1562H33.125V17.5312C33.125 16.3646 33.3698 15.4896 33.8594 14.9062C34.349 14.3229 35.3021 14.0312 36.7188 14.0312L40.5312 14V7.53125C39.2188 7.34375 37.3646 7.25 34.9688 7.25C32.1354 7.25 29.8698 8.08333 28.1719 9.75C26.474 11.4167 25.625 13.7708 25.625 16.8125V22.1562H19.375V29.4062H25.625V48H2.65625C1.92708 48 1.30208 47.7396 0.78125 47.2188C0.260417 46.6979 0 46.0729 0 45.3438V2.65625C0 1.92708 0.260417 1.30208 0.78125 0.78125C1.30208 0.260417 1.92708 0 2.65625 0H45.3438Z" fill="#FF5722"/>
</svg>
