<svg width="232" height="48" viewBox="0 0 232 48" fill="none" xmlns="http://www.w3.org/2000/svg">
<path fill-rule="evenodd" clip-rule="evenodd" d="M186 5.67601C186 4.70107 186.387 3.76606 187.077 3.07668C187.766 2.3873 188.701 2 189.676 2H226.32C226.803 1.99922 227.282 2.09373 227.728 2.27814C228.175 2.46255 228.581 2.73322 228.922 3.07468C229.264 3.41613 229.535 3.82165 229.72 4.26802C229.905 4.7144 230 5.19286 230 5.67601V42.32C230.001 42.8032 229.906 43.2819 229.721 43.7284C229.537 44.175 229.266 44.5808 228.924 44.9226C228.582 45.2644 228.177 45.5355 227.73 45.7204C227.284 45.9052 226.805 46.0003 226.322 46H189.676C189.193 46 188.715 45.9049 188.269 45.72C187.823 45.5351 187.417 45.2642 187.076 44.9226C186.735 44.5811 186.464 44.1756 186.279 43.7294C186.095 43.2831 186 42.8049 186 42.322V5.67601ZM203.416 18.776H209.374V21.768C210.234 20.048 212.434 18.5 215.74 18.5C222.078 18.5 223.58 21.926 223.58 28.212V39.856H217.166V29.644C217.166 26.064 216.306 24.044 214.122 24.044C211.092 24.044 209.832 26.222 209.832 29.644V39.856H203.416V18.776ZM192.416 39.582H198.832V18.5H192.416V39.58V39.582ZM199.75 11.624C199.762 12.1733 199.664 12.7196 199.462 13.2306C199.261 13.7417 198.959 14.2073 198.574 14.6001C198.19 14.9929 197.731 15.305 197.225 15.518C196.718 15.7311 196.174 15.8408 195.625 15.8408C195.076 15.8408 194.532 15.7311 194.025 15.518C193.519 15.305 193.06 14.9929 192.676 14.6001C192.291 14.2073 191.989 13.7417 191.788 13.2306C191.586 12.7196 191.488 12.1733 191.5 11.624C191.524 10.5457 191.969 9.51959 192.74 8.76538C193.511 8.01117 194.546 7.58884 195.625 7.58884C196.704 7.58884 197.739 8.01117 198.51 8.76538C199.281 9.51959 199.726 10.5457 199.75 11.624V11.624Z" fill="#FF5722"/>
<path d="M15.078 45C33.192 45 43.101 29.991 43.101 16.998C43.101 16.578 43.101 16.152 43.083 15.732C45.0122 14.3355 46.6772 12.6065 48 10.626C46.1979 11.4206 44.2883 11.9442 42.333 12.18C44.3926 10.9489 45.9352 9.01191 46.674 6.729C44.739 7.87538 42.621 8.68012 40.413 9.108C38.9285 7.52708 36.9642 6.47976 34.8243 6.12828C32.6843 5.7768 30.4882 6.14077 28.576 7.16382C26.6639 8.18686 25.1424 9.81189 24.2473 11.7872C23.3523 13.7625 23.1335 15.9778 23.625 18.09C19.7092 17.8937 15.8784 16.8764 12.3811 15.1042C8.88381 13.3321 5.79805 10.8445 3.324 7.803C2.06802 9.97225 1.68472 12.5382 2.25194 14.9798C2.81916 17.4214 4.29436 19.5556 6.378 20.949C4.81662 20.896 3.28956 20.4767 1.92 19.725V19.86C1.92269 22.1324 2.70992 24.3343 4.14862 26.0933C5.58732 27.8523 7.58924 29.0606 9.816 29.514C8.97079 29.7468 8.09769 29.8629 7.221 29.859C6.60295 29.8609 5.98614 29.8036 5.379 29.688C6.00836 31.6442 7.23382 33.3545 8.88374 34.5794C10.5337 35.8044 12.5254 36.4826 14.58 36.519C11.0897 39.2604 6.7782 40.7472 2.34 40.74C1.55796 40.7433 0.776469 40.6982 0 40.605C4.50454 43.4768 9.73589 45.0017 15.078 45V45Z" fill="#FF5722"/>
<path d="M137.344 0C138.073 0 138.698 0.260417 139.219 0.78125C139.74 1.30208 140 1.92708 140 2.65625V45.3438C140 46.0729 139.74 46.6979 139.219 47.2188C138.698 47.7396 138.073 48 137.344 48H125.125V29.4062H131.344L132.281 22.1562H125.125V17.5312C125.125 16.3646 125.37 15.4896 125.859 14.9062C126.349 14.3229 127.302 14.0312 128.719 14.0312L132.531 14V7.53125C131.219 7.34375 129.365 7.25 126.969 7.25C124.135 7.25 121.87 8.08333 120.172 9.75C118.474 11.4167 117.625 13.7708 117.625 16.8125V22.1562H111.375V29.4062H117.625V48H94.6562C93.9271 48 93.3021 47.7396 92.7812 47.2188C92.2604 46.6979 92 46.0729 92 45.3438V2.65625C92 1.92708 92.2604 1.30208 92.7812 0.78125C93.3021 0.260417 93.9271 0 94.6562 0H137.344Z" fill="#FF5722"/>
</svg>
