<svg width="0" height="0" class="hidden">
  <symbol fill="none" xmlns="http://www.w3.org/2000/svg" viewBox="0 0 48 48" id="bx_cloud-download">
    <path d="M37.896 22.224C37.022 15.34 31.126 10 24.008 10C18.496 10 13.708 13.222 11.522 18.3C7.226 19.584 4.008 23.64 4.008 28C4.008 33.514 8.494 38 14.008 38H16.008V34H14.008C10.7 34 8.008 31.308 8.008 28C8.008 25.192 10.406 22.486 13.354 21.968L14.516 21.764L14.9 20.648C16.306 16.546 19.796 14 24.008 14C29.522 14 34.008 18.486 34.008 24V26H36.008C38.214 26 40.008 27.794 40.008 30C40.008 32.206 38.214 34 36.008 34H32.008V38H36.008C40.42 38 44.008 34.412 44.008 30C44.0056 28.207 43.4022 26.4666 42.2942 25.057C41.1862 23.6474 39.6376 22.6499 37.896 22.224V22.224Z" fill="black"></path>
    <path d="M26.008 28V20H22.008V28H16.008L24.008 38L32.008 28H26.008Z" fill="black"></path>
  </symbol>
  <symbol fill="none" xmlns="http://www.w3.org/2000/svg" viewBox="0 0 49 48" id="bxs_cloud-download">
    <path d="M38.348 22.224C37.474 15.34 31.58 10 24.46 10C18.948 10 14.16 13.22 11.974 18.298C7.67799 19.584 4.45999 23.64 4.45999 28C4.45999 33.314 8.63799 37.63 13.876 37.942V38H36.44V37.994L36.46 38C40.872 38 44.46 34.412 44.46 30C44.4576 28.207 43.8542 26.4666 42.7462 25.057C41.6382 23.6474 40.0896 22.6499 38.348 22.224V22.224ZM16.46 24H22.46V18H26.46V24H32.46L24.46 34L16.46 24Z" fill="black"></path>
  </symbol>
  <symbol fill="none" xmlns="http://www.w3.org/2000/svg" viewBox="0 0 40 37" id="car">
    <path d="M35.957 13.9252L36.0971 14.3483L36.5055 14.5269C37.9449 15.1566 39 16.6822 39 18.5V25.1071C39 26.72 38.1703 28.1037 36.98 28.8284L36.5 29.1207V29.6826V34.3571C36.5 35.3198 35.7789 36 35 36H32.5C31.7211 36 31 35.3198 31 34.3571V30.3929V29.3929H30H10H9V30.3929V34.3571C9 35.3198 8.2789 36 7.5 36H5C4.22285 36 3.5 35.3191 3.5 34.3571V29.6826V29.1202L3.01943 28.8281C1.82791 28.1038 1 26.7207 1 25.1071V18.5C1 16.6815 2.05252 15.1567 3.49458 14.5272L3.90353 14.3487L4.04382 13.9251L6.79304 5.62406L6.79313 5.62379C7.71941 2.82429 10.1948 1 12.9219 1H27.0781C29.8047 1 32.2784 2.8239 33.2071 5.62442L35.957 13.9252ZM9.6136 6.73756L9.61314 6.73893L7.57408 12.9001L7.13914 14.2143H8.52344H31.4766H32.8609L32.4259 12.9001L30.3869 6.73893L30.3864 6.73756C29.9086 5.30091 28.6013 4.28571 27.0781 4.28571H12.9219C11.3987 4.28571 10.0914 5.30091 9.6136 6.73756ZM16.25 18.8214C14.9586 18.8214 14 19.9169 14 21.1429V23.7857C14 25.0117 14.9586 26.1071 16.25 26.1071H23.75C25.0414 26.1071 26 25.0117 26 23.7857V21.1429C26 19.9169 25.0414 18.8214 23.75 18.8214H16.25ZM5.625 23.4643H8.125C9.76798 23.4643 11 22.0798 11 20.4821C11 18.8845 9.76798 17.5 8.125 17.5H5.625C3.98725 17.5 2.75 18.8831 2.75 20.4821C2.75 22.0812 3.98725 23.4643 5.625 23.4643ZM31.875 17.5C30.232 17.5 29 18.8845 29 20.4821C29 22.0798 30.232 23.4643 31.875 23.4643H34.375C36.018 23.4643 37.25 22.0798 37.25 20.4821C37.25 18.8845 36.018 17.5 34.375 17.5H31.875Z" fill="white" stroke="black" stroke-width="2"></path>
  </symbol>
</svg>