<svg width="0" height="0" class="hidden">
  <symbol fill="none" xmlns="http://www.w3.org/2000/svg" viewBox="0 0 48 48" id="linkedin">
    <g clip-path="url(#clip0_49_92)">
      <path fill-rule="evenodd" clip-rule="evenodd" d="M2 6.01019C2 4.94662 2.4225 3.92662 3.17456 3.17456C3.92661 2.42251 4.94662 2.00001 6.01018 2.00001H45.9855C46.5125 1.99914 47.0346 2.10225 47.5218 2.30342C48.0089 2.5046 48.4516 2.79988 48.8245 3.17238C49.1974 3.54487 49.4932 3.98726 49.6949 4.47421C49.8966 4.96116 50.0003 5.48311 50 6.01019V45.9855C50.0006 46.5126 49.8972 47.0347 49.6958 47.5219C49.4944 48.0091 49.1989 48.4518 48.8262 48.8247C48.4535 49.1975 48.011 49.4933 47.5239 49.695C47.0369 49.8966 46.5148 50.0003 45.9876 50H6.01018C5.48337 50 4.96173 49.8962 4.47505 49.6945C3.98837 49.4929 3.54619 49.1973 3.17378 48.8247C2.80138 48.4521 2.50603 48.0097 2.30463 47.5229C2.10323 47.0361 1.99971 46.5144 2 45.9876V6.01019ZM20.9993 20.3011H27.4989V23.5651C28.4371 21.6887 30.8371 20 34.4436 20C41.3578 20 42.9964 23.7375 42.9964 30.5949V43.2975H35.9993V32.1571C35.9993 28.2516 35.0611 26.048 32.6785 26.048C29.3731 26.048 27.9985 28.424 27.9985 32.1571V43.2975H20.9993V20.3011ZM8.99927 42.9985H15.9985V20H8.99927V42.9964V42.9985ZM17 12.4989C17.0132 13.0982 16.9066 13.6941 16.6863 14.2516C16.4661 14.8091 16.1368 15.317 15.7176 15.7455C15.2984 16.174 14.7979 16.5145 14.2454 16.7469C13.6928 16.9794 13.0994 17.0991 12.5 17.0991C11.9006 17.0991 11.3072 16.9794 10.7546 16.7469C10.2021 16.5145 9.70157 16.174 9.2824 15.7455C8.86323 15.317 8.53388 14.8091 8.31366 14.2516C8.09344 13.6941 7.9868 13.0982 8 12.4989C8.0259 11.3226 8.51139 10.2032 9.35248 9.38041C10.1936 8.55764 11.3234 8.09692 12.5 8.09692C13.6766 8.09692 14.8064 8.55764 15.6475 9.38041C16.4886 10.2032 16.9741 11.3226 17 12.4989V12.4989Z" fill="#FF5722"></path>
    </g>
    <defs>
      <clipPath id="clip0_49_92">
        <rect width="48" height="48" fill="white"></rect>
      </clipPath>
    </defs>
  </symbol>
  <symbol fill="none" xmlns="http://www.w3.org/2000/svg" viewBox="0 0 48 48" id="telegram">
    <path fill-rule="evenodd" clip-rule="evenodd" d="M48 24C48 37.254 37.254 48 24 48C10.746 48 0 37.254 0 24C0 10.746 10.746 0 24 0C37.254 0 48 10.746 48 24ZM24.86 17.718C22.526 18.688 17.86 20.698 10.864 23.746C9.728 24.198 9.132 24.64 9.078 25.072C8.986 25.804 9.902 26.092 11.146 26.482C11.316 26.536 11.492 26.59 11.672 26.65C12.898 27.048 14.546 27.514 15.402 27.532C16.18 27.548 17.048 27.228 18.006 26.572C24.542 22.158 27.916 19.928 28.128 19.88C28.278 19.846 28.486 19.802 28.626 19.928C28.766 20.052 28.752 20.288 28.738 20.352C28.646 20.738 25.058 24.076 23.198 25.804C22.618 26.342 22.208 26.724 22.124 26.812C21.936 27.006 21.744 27.192 21.56 27.37C20.42 28.466 19.568 29.29 21.608 30.634C22.588 31.28 23.372 31.814 24.154 32.346C25.008 32.928 25.86 33.508 26.964 34.232C27.244 34.416 27.512 34.606 27.774 34.792C28.768 35.502 29.662 36.138 30.766 36.038C31.406 35.978 32.07 35.376 32.406 33.578C33.2 29.326 34.764 20.118 35.126 16.322C35.148 16.0068 35.1346 15.6902 35.086 15.378C35.0569 15.1259 34.9341 14.8939 34.742 14.728C34.456 14.494 34.012 14.444 33.812 14.448C32.91 14.464 31.526 14.946 24.86 17.718V17.718Z" fill="#FF5722"></path>
  </symbol>
  <symbol fill="none" xmlns="http://www.w3.org/2000/svg" viewBox="0 0 48 48" id="twitter">
    <path d="M15.078 45C33.192 45 43.101 29.991 43.101 16.998C43.101 16.578 43.101 16.152 43.083 15.732C45.0122 14.3355 46.6772 12.6065 48 10.626C46.1979 11.4206 44.2883 11.9442 42.333 12.18C44.3926 10.9489 45.9352 9.01191 46.674 6.729C44.739 7.87538 42.621 8.68012 40.413 9.108C38.9285 7.52708 36.9642 6.47976 34.8243 6.12828C32.6843 5.7768 30.4882 6.14077 28.576 7.16382C26.6639 8.18686 25.1424 9.81189 24.2473 11.7872C23.3523 13.7625 23.1335 15.9778 23.625 18.09C19.7092 17.8937 15.8784 16.8764 12.3811 15.1042C8.88381 13.3321 5.79805 10.8445 3.324 7.803C2.06802 9.97225 1.68472 12.5382 2.25194 14.9798C2.81916 17.4214 4.29436 19.5556 6.378 20.949C4.81662 20.896 3.28956 20.4767 1.92 19.725V19.86C1.92269 22.1324 2.70992 24.3343 4.14862 26.0933C5.58732 27.8523 7.58924 29.0606 9.816 29.514C8.97079 29.7468 8.09769 29.8629 7.221 29.859C6.60295 29.8609 5.98614 29.8036 5.379 29.688C6.00836 31.6442 7.23382 33.3545 8.88374 34.5794C10.5337 35.8044 12.5254 36.4826 14.58 36.519C11.0897 39.2604 6.7782 40.7472 2.34 40.74C1.55796 40.7433 0.776469 40.6982 0 40.605C4.50454 43.4768 9.73589 45.0017 15.078 45V45Z" fill="#FF5722"></path>
  </symbol>
  <symbol fill="none" xmlns="http://www.w3.org/2000/svg" viewBox="0 0 41 40" id="Calling">
    <path opacity="0.4" d="M25.706 1C33.108 1.822 38.956 7.662 39.786 15.064" stroke="#FF5722" stroke-width="1.5" stroke-linecap="round" stroke-linejoin="round"></path>
    <path opacity="0.4" d="M25.706 8.086C29.248 8.774 32.016 11.544 32.706 15.086" stroke="#FF5722" stroke-width="1.5" stroke-linecap="round" stroke-linejoin="round"></path>
    <path fill-rule="evenodd" clip-rule="evenodd" d="M19.063 20.9448C27.041 28.9207 28.8509 19.6934 33.9305 24.7696C38.8276 29.6655 41.6444 30.6464 35.4376 36.8494C34.6605 37.474 29.7225 44.9885 12.3689 27.6393C-4.98681 10.288 2.52313 5.34489 3.14789 4.5679C9.36753 -1.65231 10.3336 1.17877 15.2308 6.07466C20.3083 11.153 11.0851 12.9688 19.063 20.9448Z" stroke="#FF5722" stroke-width="1.5" stroke-linecap="round" stroke-linejoin="round"></path>
  </symbol>
  <symbol fill="none" xmlns="http://www.w3.org/2000/svg" viewBox="0 0 48 48" id="facebook">
    <path d="M45.3438 0C46.0729 0 46.6979 0.260417 47.2188 0.78125C47.7396 1.30208 48 1.92708 48 2.65625V45.3438C48 46.0729 47.7396 46.6979 47.2188 47.2188C46.6979 47.7396 46.0729 48 45.3438 48H33.125V29.4062H39.3438L40.2812 22.1562H33.125V17.5312C33.125 16.3646 33.3698 15.4896 33.8594 14.9062C34.349 14.3229 35.3021 14.0312 36.7188 14.0312L40.5312 14V7.53125C39.2188 7.34375 37.3646 7.25 34.9688 7.25C32.1354 7.25 29.8698 8.08333 28.1719 9.75C26.474 11.4167 25.625 13.7708 25.625 16.8125V22.1562H19.375V29.4062H25.625V48H2.65625C1.92708 48 1.30208 47.7396 0.78125 47.2188C0.260417 46.6979 0 46.0729 0 45.3438V2.65625C0 1.92708 0.260417 1.30208 0.78125 0.78125C1.30208 0.260417 1.92708 0 2.65625 0H45.3438Z" fill="#FF5722"></path>
  </symbol>
  <symbol fill="none" xmlns="http://www.w3.org/2000/svg" viewBox="0 0 33 39" id="Location">
    <path fill-rule="evenodd" clip-rule="evenodd" d="M1.47826 16.7826C1.50708 8.30144 8.40578 1.44945 16.887 1.47817C25.3681 1.50708 32.2201 8.40578 32.1914 16.887V17.0609C32.087 22.5739 29.0087 27.6696 25.2348 31.6522C23.0765 33.8934 20.6663 35.8776 18.0522 37.5652C17.3532 38.1698 16.3164 38.1698 15.6174 37.5652C11.7204 35.0287 8.30013 31.8263 5.51304 28.1043C3.02896 24.8588 1.61859 20.9195 1.47826 16.8348V16.7826Z" stroke="#FF5722" stroke-width="1.5" stroke-linecap="round" stroke-linejoin="round"></path>
    <path opacity="0.4" d="M16.8348 22C19.553 22 21.7565 19.7965 21.7565 17.0783C21.7565 14.3601 19.553 12.1565 16.8348 12.1565C14.1166 12.1565 11.913 14.3601 11.913 17.0783C11.913 19.7965 14.1166 22 16.8348 22Z" stroke="#FF5722" stroke-width="1.5" stroke-linecap="round" stroke-linejoin="round"></path>
  </symbol>
  <symbol fill="none" xmlns="http://www.w3.org/2000/svg" viewBox="0 0 48 48" id="Message">
    <path opacity="0.4" d="M34.5355 17.1223L26.0046 23.9908C24.3902 25.2565 22.127 25.2565 20.5126 23.9908L11.9085 17.1223" stroke="#FF5722" stroke-width="1.5" stroke-linecap="round" stroke-linejoin="round"></path>
    <path fill-rule="evenodd" clip-rule="evenodd" d="M13.7757 6H32.6316C35.3504 6.03049 37.9381 7.17986 39.792 9.1804C41.646 11.181 42.6043 13.8581 42.4439 16.5882V29.644C42.6043 32.3742 41.646 35.0513 39.792 37.0518C37.9381 39.0524 35.3504 40.2017 32.6316 40.2322H13.7757C7.93593 40.2322 4 35.4813 4 29.644V16.5882C4 10.7509 7.93593 6 13.7757 6Z" stroke="#FF5722" stroke-width="1.5" stroke-linecap="round" stroke-linejoin="round"></path>
  </symbol>
  <symbol fill="none" xmlns="http://www.w3.org/2000/svg" viewBox="0 0 96 96" id="Phone-android">
    <path opacity="0.3" d="M28 16H68V72H28V16Z" fill="black" fill-opacity="0.01"></path>
    <path d="M64 4H32C25.36 4 20 9.36 20 16V80C20 86.64 25.36 92 32 92H64C70.64 92 76 86.64 76 80V16C76 9.36 70.64 4 64 4ZM56 84H40V80H56V84ZM68 72H28V16H68V72Z" fill="#FF5722"></path>
  </symbol>
</svg>