<svg width="0" height="0" class="hidden">
  <symbol fill="none" xmlns="http://www.w3.org/2000/svg" viewBox="0 0 48 48" id="instagram">
    <path fill-rule="evenodd" clip-rule="evenodd" d="M14.93 2.132C17.276 2.024 18.024 2 24 2C29.976 2 30.724 2.026 33.068 2.132C35.412 2.238 37.012 2.612 38.412 3.154C39.878 3.708 41.208 4.574 42.308 5.694C43.428 6.792 44.292 8.12 44.844 9.588C45.388 10.988 45.76 12.588 45.868 14.928C45.976 17.278 46 18.026 46 24C46 29.976 45.974 30.724 45.868 33.07C45.762 35.41 45.388 37.01 44.844 38.41C44.292 39.8782 43.4266 41.2084 42.308 42.308C41.208 43.428 39.878 44.292 38.412 44.844C37.012 45.388 35.412 45.76 33.072 45.868C30.724 45.976 29.976 46 24 46C18.024 46 17.276 45.974 14.93 45.868C12.59 45.762 10.99 45.388 9.59 44.844C8.12184 44.2919 6.79164 43.4265 5.692 42.308C4.57276 41.2093 3.70663 39.8798 3.154 38.412C2.612 37.012 2.24 35.412 2.132 33.072C2.024 30.722 2 29.974 2 24C2 18.024 2.026 17.276 2.132 14.932C2.238 12.588 2.612 10.988 3.154 9.588C3.70745 8.12016 4.57424 6.79063 5.694 5.692C6.79208 4.573 8.12094 3.70689 9.588 3.154C10.988 2.612 12.588 2.24 14.928 2.132H14.93ZM32.89 6.092C30.57 5.986 29.874 5.964 24 5.964C18.126 5.964 17.43 5.986 15.11 6.092C12.964 6.19 11.8 6.548 11.024 6.85C9.998 7.25 9.264 7.724 8.494 8.494C7.76409 9.2041 7.20236 10.0686 6.85 11.024C6.548 11.8 6.19 12.964 6.092 15.11C5.986 17.43 5.964 18.126 5.964 24C5.964 29.874 5.986 30.57 6.092 32.89C6.19 35.036 6.548 36.2 6.85 36.976C7.202 37.93 7.764 38.796 8.494 39.506C9.204 40.236 10.07 40.798 11.024 41.15C11.8 41.452 12.964 41.81 15.11 41.908C17.43 42.014 18.124 42.036 24 42.036C29.876 42.036 30.57 42.014 32.89 41.908C35.036 41.81 36.2 41.452 36.976 41.15C38.002 40.75 38.736 40.276 39.506 39.506C40.236 38.796 40.798 37.93 41.15 36.976C41.452 36.2 41.81 35.036 41.908 32.89C42.014 30.57 42.036 29.874 42.036 24C42.036 18.126 42.014 17.43 41.908 15.11C41.81 12.964 41.452 11.8 41.15 11.024C40.75 9.998 40.276 9.264 39.506 8.494C38.7959 7.76414 37.9314 7.20242 36.976 6.85C36.2 6.548 35.036 6.19 32.89 6.092V6.092ZM21.19 30.782C22.7593 31.4353 24.5068 31.5234 26.1339 31.0314C27.761 30.5395 29.1668 29.4978 30.1112 28.0845C31.0557 26.6711 31.4801 24.9737 31.3121 23.2822C31.1441 21.5907 30.394 20.0099 29.19 18.81C28.4225 18.043 27.4944 17.4556 26.4727 17.0903C25.4509 16.725 24.3609 16.5907 23.281 16.6972C22.2011 16.8037 21.1583 17.1484 20.2276 17.7063C19.2969 18.2642 18.5015 19.0215 17.8986 19.9237C17.2957 20.8259 16.9004 21.8506 16.741 22.9239C16.5817 23.9973 16.6623 25.0926 16.9771 26.131C17.2919 27.1695 17.833 28.1252 18.5614 28.9294C19.2899 29.7337 20.1876 30.3664 21.19 30.782ZM16.004 16.004C17.054 14.954 18.3006 14.121 19.6726 13.5527C21.0446 12.9844 22.515 12.6919 24 12.6919C25.485 12.6919 26.9554 12.9844 28.3274 13.5527C29.6994 14.121 30.946 14.954 31.996 16.004C33.046 17.054 33.879 18.3006 34.4473 19.6726C35.0156 21.0446 35.3081 22.515 35.3081 24C35.3081 25.485 35.0156 26.9554 34.4473 28.3274C33.879 29.6994 33.046 30.946 31.996 31.996C29.8753 34.1167 26.9991 35.3081 24 35.3081C21.0009 35.3081 18.1247 34.1167 16.004 31.996C13.8833 29.8753 12.6919 26.9991 12.6919 24C12.6919 21.0009 13.8833 18.1247 16.004 16.004V16.004ZM37.816 14.376C38.0762 14.1305 38.2845 13.8354 38.4286 13.5079C38.5727 13.1805 38.6496 12.8275 38.6548 12.4699C38.66 12.1122 38.5934 11.7571 38.459 11.4256C38.3245 11.0941 38.1249 10.793 37.8719 10.5401C37.619 10.2871 37.3179 10.0875 36.9864 9.95304C36.6549 9.81856 36.2998 9.75195 35.9421 9.75717C35.5845 9.76238 35.2315 9.83931 34.9041 9.98339C34.5766 10.1275 34.2815 10.3358 34.036 10.596C33.5586 11.1021 33.2973 11.7742 33.3074 12.4699C33.3175 13.1655 33.5984 13.8298 34.0903 14.3217C34.5822 14.8136 35.2465 15.0945 35.9421 15.1046C36.6378 15.1147 37.3099 14.8534 37.816 14.376V14.376Z" fill="#ABABAB"></path>
  </symbol>
  <symbol fill="none" xmlns="http://www.w3.org/2000/svg" viewBox="0 0 48 48" id="linkedin">
    <path fill-rule="evenodd" clip-rule="evenodd" d="M18.858 17.938H26.286V21.638C27.356 19.51 30.1 17.598 34.222 17.598C42.124 17.598 44 21.834 44 29.606V44H36V31.376C36 26.95 34.93 24.454 32.206 24.454C28.428 24.454 26.858 27.144 26.858 31.374V44H18.858V17.938V17.938ZM5.14 43.66H13.14V17.598H5.14V43.66V43.66ZM14.286 9.1C14.2863 9.77055 14.1533 10.4345 13.8948 11.0532C13.6362 11.6719 13.2573 12.233 12.78 12.704C11.8128 13.6652 10.5036 14.2033 9.14 14.2C7.77878 14.1991 6.47262 13.6624 5.504 12.706C5.02842 12.2334 4.65077 11.6716 4.39269 11.0529C4.1346 10.4341 4.00116 9.77045 4 9.1C4 7.746 4.54 6.45 5.506 5.494C6.47377 4.53632 7.78048 3.9994 9.142 4C10.506 4 11.814 4.538 12.78 5.494C13.744 6.45 14.286 7.746 14.286 9.1Z" fill="#ABABAB"></path>
  </symbol>
  <symbol fill="none" xmlns="http://www.w3.org/2000/svg" viewBox="0 0 48 48" id="twitter">
    <path d="M43.5 11.9203C42.0656 12.5391 40.5047 12.9844 38.8969 13.1578C40.5661 12.1661 41.8162 10.5994 42.4125 8.75155C40.8461 9.68338 39.1301 10.3368 37.3406 10.6828C36.5927 9.88324 35.6881 9.24627 34.6833 8.81159C33.6784 8.3769 32.5948 8.15382 31.5 8.15624C27.0703 8.15624 23.5078 11.7469 23.5078 16.1531C23.5078 16.7719 23.5828 17.3906 23.7047 17.9859C17.0719 17.6391 11.1562 14.4703 7.22343 9.61874C6.50683 10.8427 6.1313 12.2364 6.13592 13.6547C6.13592 16.4297 7.54686 18.8766 9.69842 20.3156C8.43048 20.2657 7.19222 19.9172 6.08436 19.2984V19.3969C6.08436 23.2828 8.83124 26.5031 12.4922 27.2437C11.8048 27.4223 11.0977 27.5136 10.3875 27.5156C9.86718 27.5156 9.37499 27.4641 8.87811 27.3937C9.89061 30.5625 12.839 32.8641 16.35 32.9391C13.6031 35.0906 10.1625 36.3562 6.42655 36.3562C5.75624 36.3562 5.13749 36.3328 4.4953 36.2578C8.03905 38.5312 12.2437 39.8437 16.7719 39.8437C31.4719 39.8437 39.5156 27.6656 39.5156 17.0953C39.5156 16.7484 39.5156 16.4016 39.4922 16.0547C41.0484 14.9156 42.4125 13.5047 43.5 11.9203Z" fill="#ABABAB"></path>
  </symbol>
  <symbol fill="none" xmlns="http://www.w3.org/2000/svg" viewBox="0 0 48 48" id="facebook">
    <path d="M26.794 41.994V25.602H32.324L33.146 19.184H26.794V15.096C26.794 13.244 27.31 11.976 29.968 11.976H33.336V6.254C31.6973 6.07838 30.0501 5.99359 28.402 6C23.514 6 20.158 8.984 20.158 14.462V19.172H14.664V25.59H20.17V41.994H26.794Z" fill="#ABABAB"></path>
  </symbol>
  <symbol fill="none" xmlns="http://www.w3.org/2000/svg" viewBox="0 0 48 48" id="telegram">
    <path d="M41.33 7.43401L5.87001 21.108C3.45001 22.08 3.46401 23.43 5.42601 24.032L14.53 26.872L35.594 13.582C36.59 12.976 37.5 13.302 36.752 13.966L19.686 29.368H19.682L19.686 29.37L19.058 38.754C19.978 38.754 20.384 38.332 20.9 37.834L25.322 33.534L34.52 40.328C36.216 41.262 37.434 40.782 37.856 38.758L43.894 10.302C44.512 7.82401 42.948 6.70201 41.33 7.43401V7.43401Z" fill="#ABABAB"></path>
  </symbol>
</svg>