<svg width="48" height="48" viewBox="0 0 48 48" fill="none" xmlns="http://www.w3.org/2000/svg">
<path d="M37.896 22.224C37.022 15.34 31.126 10 24.008 10C18.496 10 13.708 13.222 11.522 18.3C7.226 19.584 4.008 23.64 4.008 28C4.008 33.514 8.494 38 14.008 38H16.008V34H14.008C10.7 34 8.008 31.308 8.008 28C8.008 25.192 10.406 22.486 13.354 21.968L14.516 21.764L14.9 20.648C16.306 16.546 19.796 14 24.008 14C29.522 14 34.008 18.486 34.008 24V26H36.008C38.214 26 40.008 27.794 40.008 30C40.008 32.206 38.214 34 36.008 34H32.008V38H36.008C40.42 38 44.008 34.412 44.008 30C44.0056 28.207 43.4022 26.4666 42.2942 25.057C41.1862 23.6474 39.6376 22.6499 37.896 22.224V22.224Z" fill="black"/>
<path d="M26.008 28V20H22.008V28H16.008L24.008 38L32.008 28H26.008Z" fill="black"/>
</svg>
