<svg width="49" height="48" viewBox="0 0 49 48" fill="none" xmlns="http://www.w3.org/2000/svg">
<path d="M38.348 22.224C37.474 15.34 31.58 10 24.46 10C18.948 10 14.16 13.22 11.974 18.298C7.67799 19.584 4.45999 23.64 4.45999 28C4.45999 33.314 8.63799 37.63 13.876 37.942V38H36.44V37.994L36.46 38C40.872 38 44.46 34.412 44.46 30C44.4576 28.207 43.8542 26.4666 42.7462 25.057C41.6382 23.6474 40.0896 22.6499 38.348 22.224V22.224ZM16.46 24H22.46V18H26.46V24H32.46L24.46 34L16.46 24Z" fill="black"/>
</svg>
