<svg width="33" height="39" viewBox="0 0 33 39" fill="none" xmlns="http://www.w3.org/2000/svg">
<path fill-rule="evenodd" clip-rule="evenodd" d="M1.47826 16.7826C1.50708 8.30144 8.40578 1.44945 16.887 1.47817C25.3681 1.50708 32.2201 8.40578 32.1914 16.887V17.0609C32.087 22.5739 29.0087 27.6696 25.2348 31.6522C23.0765 33.8934 20.6663 35.8776 18.0522 37.5652C17.3532 38.1698 16.3164 38.1698 15.6174 37.5652C11.7204 35.0287 8.30013 31.8263 5.51304 28.1043C3.02896 24.8588 1.61859 20.9195 1.47826 16.8348V16.7826Z" stroke="#FF5722" stroke-width="1.5" stroke-linecap="round" stroke-linejoin="round"/>
<path opacity="0.4" d="M16.8348 22C19.553 22 21.7565 19.7965 21.7565 17.0783C21.7565 14.3601 19.553 12.1565 16.8348 12.1565C14.1166 12.1565 11.913 14.3601 11.913 17.0783C11.913 19.7965 14.1166 22 16.8348 22Z" stroke="#FF5722" stroke-width="1.5" stroke-linecap="round" stroke-linejoin="round"/>
</svg>
